PathFileType	4	(X/Y/Z)	/tmp/tmphz8i29mk/org-f5e79b5e/32898/baseball-pitching/20220928/session_662820_hawkeye/trc/001_10A17836-7AA3-4221-8461-2F40718F5DA8.trc
DataRate	CameraRate	NumFrames	NumMarkers	Units	OrigDataRate	OrigDataStartFrame	OrigNumFrames
303.03030303030306	303.03030303030306	8	13	mm	303.03030303030306	682	908
Frame#	Time	LSJC			RSJC			LEJC			REJC			LWJC			RWJC			LHJC			RHJC			LKJC			RKJC			LAJC			RAJC			NECK		
		X1	Y1	Z1	X2	Y2	Z2	X3	Y3	Z3	X4	Y4	Z4	X5	Y5	Z5	X6	Y6	Z6	X7	Y7	Z7	X8	Y8	Z8	X9	Y9	Z9	X10	Y10	Z10	X11	Y11	Z11	X12	Y12	Z12	X13	Y13	Z13

682	2.2473	-366.58099897195103	1431.4713568430022	1497.4274002031968	-233.7467083012002	1731.9028819209402	1280.5828318902059	-242.70596745752346	1169.8362976837748	1448.7691772876587	-260.67814176394415	1507.9301676444177	1133.6609378694789	-147.62371176932155	878.0616307239341	1373.4601488889346	-387.66531583149873	1234.261838076962	1168.4245093225968	86.35090281529254	1195.9731728647146	1177.9943852081908	31.27861922954564	1421.8776459926898	1131.7031492596527	80.13588633669085	1293.3105221454603	754.9079706777659	343.4274155817811	1192.8037901803084	1139.4067305150063	90.99162595643276	1423.916856138733	282.9469724273686	622.8851192852973	883.0907756712551	1372.320399135169	-251.88180278028202	1579.3094816331147	1416.4376471086628
683	2.2506	-368.4973721960282	1433.4156933668794	1495.7738096336373	-233.37516213899593	1735.2529334314993	1281.179065031959	-242.91827424608925	1171.6040583095667	1450.4877511033364	-258.6782002740499	1514.1335660672412	1129.7106203927044	-145.33056606639423	879.2626196046158	1381.5959985528484	-383.8744433641458	1241.2977554137844	1167.9718959641277	86.22585171676918	1198.4002713551674	1178.3269667693671	30.31341070985204	1424.1026718211185	1132.0558062121286	79.54289754083483	1294.551809166316	754.6848289107799	345.02607648352546	1199.0226192086468	1143.9139754709295	90.49322901027705	1423.8725930625408	282.85665112833124	628.9031950937792	896.9814568940602	1380.982101421482	-252.8770538739205	1581.6277064088613	1416.0241407351216
684	2.2539	-370.3193730320455	1435.3602154053874	1494.3432699866396	-232.75616722356222	1738.7032809452394	1281.7971593049508	-243.59380680660615	1173.1943948745325	1452.3088487160699	-256.4548718134491	1520.7987277961056	1125.6517309504795	-144.40166044956143	880.5407934648237	1388.647734175319	-378.7903857322553	1248.3726030678672	1167.0237941279695	85.7999150698272	1200.6912720133682	1178.5375609237396	29.301108393338474	1426.2565024102298	1132.3097984213678	79.17472317156377	1295.6679894411632	754.5189986299048	346.04417105955207	1205.235975563232	1148.2869623992976	90.73297167689644	1424.3719333250456	283.01112897644066	634.5992907353109	911.3630673659443	1389.5204383446137	-253.7891432647355	1584.0060560992802	1415.686294910004
685	2.2572	-372.11352562500457	1437.2718016769777	1493.0185232083186	-232.0485260180103	1742.108187162137	1282.588673535201	-244.26777973199796	1174.8205521169489	1454.081116357905	-254.27585554810054	1527.6326792261732	1121.72540963201	-143.45711385599844	882.1281090597213	1395.3390260950448	-375.5235934080958	1256.9061729999391	1167.1600153273212	85.44263044743722	1202.9114457047144	1178.9282669781282	28.346592985224	1428.3389517453572	1132.7625572144416	78.80890349131137	1296.7037408893705	754.5336774636534	347.1649133729521	1211.5317354841575	1152.5806658268468	90.85169908068133	1424.7971307632004	283.3343634211592	640.1749452934445	925.8527317086155	1397.8001663943621	-254.63141607874624	1586.3348936756427	1415.4963751259302
686	2.2605	-373.8652933503676	1439.1558380887252	1491.8084473167125	-231.27154021546167	1745.4508254376024	1283.5506097200548	-244.94433212548677	1176.4761627853236	1455.803381118296	-252.0990703799154	1534.5399260245513	1118.0229253069301	-142.53686697796644	883.9689516399156	1401.6416909006355	-373.8460695421891	1266.698258996969	1168.3974904458469	85.17907383792097	1205.0801339602676	1179.5178560654117	27.464471593334107	1430.3659814209136	1133.4299362827524	78.47363812038795	1297.6757832891258	754.7475552579207	348.3879479693663	1217.9014607068173	1156.8200026066665	90.87957049164415	1425.1630503922893	283.84343377500204	645.6295421612033	940.4184475189877	1405.8458190190065	-255.40249063545247	1588.615338102949	1415.4643636193503
687	2.2638	-375.56154123029955	1441.0167150572609	1490.7200474682431	-230.44740239968084	1748.7177651807592	1284.6752898163832	-245.62664994135434	1178.153564103971	1457.477125606497	-249.8921610367637	1541.4334408442594	1114.61311128911	-141.67627720867006	886.0075098114366	1407.5407684041913	-373.541286140675	1277.5903181087724	1170.6690044845275	85.02951705661951	1207.2173079217482	1180.316417677051	26.66628575720638	1432.3545379409036	1134.3192695113705	78.19232866459159	1298.5998044059586	755.1701559114218	349.7111261192918	1224.3386867999575	1161.0204527175886	90.8422098849443	1425.4808593736484	284.54607769115154	650.961945196204	955.029071578477	1413.6707633554613	-256.10271708525556	1590.8491796833455	1415.5959901273102
688	2.2671	-377.19065289524445	1442.8579540276244	1489.758400143795	-229.60110854049904	1751.8989609029652	1285.950329101193	-246.31668151253928	1179.8444279677392	1459.1061500230098	-247.6311343948398	1548.2354818702474	1111.5432776188557	-140.90478046579418	888.189707033811	1413.0334810944557	-374.3935155450129	1289.443471680594	1173.8387099222075	85.00942381687065	1209.343594685799	1181.325332361747	25.96050395003802	1434.322593781835	1135.4293387328798	77.98357066138018	1299.4904524601593	755.8018287583569	351.1304775522602	1230.8390306038887	1165.1887996355763	90.7607780599299	1425.7580406077543	285.4407026068655	656.1702982110573	969.654826758774	1421.2788777306996	-256.73420951404995	1593.0389331481708	1415.8927045019395
689	2.2704	-378.74266843432275	1444.6823512541791	1488.9266135566015	-228.76035205282858	1754.987684496893	1287.35865747425	-247.01500629249307	1181.5403251697853	1460.6962785989483	-245.29882381469088	1554.8787052939942	1108.840313821799	-140.2450778382891	890.4648942547125	1418.1281312192841	-376.1804704603828	1302.1191398173928	1177.716945964692	85.1294416290937	1211.4802812034043	1182.5372760693954	25.352510579804317	1436.2891667505462	1136.750377871053	77.86112867856696	1300.3613128714749	756.6337763547973	352.6401450965906	1237.4003320745317	1169.3237441613765	90.65199515061097	1425.9984092202442	286.5164359426487	661.2517140630653	984.2678373291627	1428.6659245891653	-257.3008792156684	1595.187870868506	1416.351673323972
